<svg xmlns="http://www.w3.org/2000/svg" viewBox="0 0 800 250"><defs><style>.cls-1{fill:#fff;}</style></defs><title>Signature_White</title><g id="Layer_2" data-name="Layer 2"><g id="Layer_1-2" data-name="Layer 1"><path class="cls-1" d="M94,243c-1.61,2.25-3,4.77-5.08,6.49-1,.79-4.09.61-4.58-.21a116.69,116.69,0,0,1-6.08-12.46c-2.47-5.61-4.77-11.3-7.16-16.95s-4.87-11.47-7.31-17.2c-2.14-5-4.47-5.86-9.22-3.41-.68.35-13,2.9-18.27,4.63a12.47,12.47,0,0,1-2.91.88c-3.68.26-5.62,2.36-6.1,6.3q-1.73,14-3.7,27.86c-.58,4-3.7,6.83-6.83,6.54-1.94-.18-3.18-.81-3-3.41.61-7.42,1-14.87,1.43-22.32.05-.83-.06-1.68-.12-3-1.35.17-2.69,0-3.69.54C8.13,219,5.14,217.88,4,215a9.38,9.38,0,0,1,1.17-7.64c2.42-3.13,5.81-5.51,9-7.84a8.92,8.92,0,0,0,4.06-6.75c.77-6.52,2.31-12.95,3.1-19.47a89.51,89.51,0,0,0,.33-12.8c-.12-5.74-.57-11.47-.74-17.2-.08-2.42-1-2.81-3.1-2.37a78.88,78.88,0,0,1-12.89,2c-1.77.06-3.6-1.84-5-2.61a33.5,33.5,0,0,0,.58-4.26c0-3,1.49-4.34,4-5.07q6-1.76,11.93-3.79c2.74-1,4.35-2.77,4.66-6.12.63-6.76,1.9-13.45,2.45-20.21.4-4.81,0-9.69.08-14.53.12-5.36,2.78-9.5,6.31-13,2-2,6.57-1.82,8.63.32a30.88,30.88,0,0,1,7.72,13.3c.8,2.85,2.67,5.35,3.83,8.11q2,4.84,3.64,9.88a6.47,6.47,0,0,0,8,4.51c9.36-2.65,33.94-11.33,36.69-13.33.66-.47.8-2,.92-3,1.68-15.33,1.89-30.85,5.52-45.94,2.29-9.5,4.35-19,6.46-28.59.34-1.52,3.77-12.66,4.08-13,1.54-1.82,2.76-4.45,4.68-5.25s4.44.3,7,.6c2.13,8.55-10.18,35-10.15,36,.2,6.75-4.09,38.17-3.84,42.41s-.38,8.4-.3,12.6a8.82,8.82,0,0,0,.2,1.74c1.44,6.55.43,13.42-1.85,19.7-.94,2.57-1.85,5.17-2.7,7.78-1,3.16-.91,6.73-1.46,10.08-.31,1.9,1.4,18.56,2.82,23.52.53,1.85,4,13.26-.65,16.08-6.67,4.07-7.65,10.61-8.34,17.48-.41,4-.37,8-.71,12C100.1,201.42,96.16,239.93,94,243Zm3.64-130.6c-8.24,4.41-28.17,12.11-29.64,14.4a11.87,11.87,0,0,0-2,8.61c.84,5.42,1.16,10.94,2,16.36A65.74,65.74,0,0,0,70.86,164c1.29,3.54,3.74,7.26,7.77,6.72,5.14-.68,10.41-2,14.47-5.93a3.12,3.12,0,0,0,.48-1.73c.57-5.79,1.2-11.57,1.65-17.37.5-6.39.8-12.81,1.25-19.21C96.78,122.07,97.19,117.65,97.61,112.4ZM42.87,131.58c-2.13.67-8.83,3.81-8.76,6a133,133,0,0,1-.44,14c-.3,4.33-1.1,8.62-1.34,13-.21,3.63.34,7.31.05,10.92a15,15,0,0,0,3,10.24c1.3,1.84,3.09,2.49,5.25,1.29s9.09-5.13,9.07-7.43c-.08-9.15-.32-18.32.11-27.45A27.73,27.73,0,0,0,42.87,131.58ZM90.59,183.1a26.81,26.81,0,0,0-5.45,1.16c-1.89.81-4.28,1.81-5.14,3.48-1.71,3.3-.66,6.91,1.48,9.78,1.81,2.43,5.38,2.26,6.4-.33C89.6,192.82,92.58,188.63,90.59,183.1Z"/><path class="cls-1" d="M242,157.08a71.79,71.79,0,0,0,7.37,1.24c.87.06,1.76-1,2.72-1.33,5.37-1.55,10.82-2.83,16.13-4.6,2.71-.9,5.05-3.1,7.78-3.87,5.43-1.54,10.49-4.49,16.44-4.31,2.24.07,4.47-2.12,6.83-2.69,3-.72,6.21-.43,9.13-1.32,5.1-1.54,10-3.73,15.06-5.49a113,113,0,0,1,11.41-3.53c3.09-.73,17.81-3.82,21.87-5.88,3.12-1.58,7.53-1.11,11.22-.54,6.69,1,6.75,1.34,7,8.72.1,3.33,2,4.68,4.52,5.61,1.41.52,2.84,1,5.06,1.72,3-.91,31.31-4.69,33.15-2.38a30.84,30.84,0,0,0,5.17-.06c2.12-.39,4.15-1.32,6.27-1.7,2.9-.53,5.85-.74,8.78-1.1a34.35,34.35,0,0,1,4-.51c1.42,0,11.25-2.83,16.07-2.39,6.2.56,12.53-.43,18.79-.87a5,5,0,0,0,2.29-1.38c3.34-2.73,21.44-9.38,25.77-10.87,1.16-.4,2.8,1.06,4.19,1,2.48-.13,4.93-.88,7.42-1.17,6.19-.73,19.41-2.13,19.56-2,3.15,3.71,14.2,2.5,16.06,2.61,2.29.14,4.61-.3,6.92-.39s10.79-1.34,13.34-.39c1,.37,12.21-1.27,16.82-1.16a3.63,3.63,0,0,0,1.48-.1c1.6-.7,15-.83,18.05-.28,2.53.45,5.11.56,7.65.93,2,.3,4.3,1.62,6,1,5.84-2.17,10.7,1,15.85,2.53.79.24,5.38-1.16,8.79.47,2.38,1.13,6.2-.8,9.3-1.67,2.85-.81,5.54-2.24,8.4-3,1.11-.28,15.42-4.51,21.89-6,5.91-1.33,11.87-2.48,17.77-3.86,1.18-.28,2.16-1.52,3.34-1.78,3.73-.84,7.53-1.4,11.29-2.11,5-.94,10-2.11,15.08-2.8,5.8-.8,11.59-2.44,17.53-1.12.54.12,8.89-1.72,12.73-.93a12.69,12.69,0,0,0,3.14,0c4.85-.24,9.69-.63,14.54-.64,1.42,0,13.92.87,18,1.69l-2.37,7.86c-1.57.72-3.77,1.78-6,2.73a2.06,2.06,0,0,1-1.69-.07c-4.38-3.13-9-2.32-13.81-1.44-1.06.19-9.21,0-12.51.2-8,.59-16.05,1.39-24.07,2.11-2.76.25-5.53.45-8.29.78-10,1.18-19.63,3.79-29.32,6.36-5,1.33-10.16,2-15.18,3.3-4.44,1.15-8.7,3.09-13.16,4.06a96.9,96.9,0,0,0-11.27,3c-3.52,1.24-7.06,2.46-10.69,3.44-6,1.61-12,3-18.22,2.63-2.21-.14-4.33-1.29-6.54-1.73-1.94-.39-4-.12-5.88-.69-3.65-1.11-7.12-3.3-10.81-3.75-4-.49-7.78-2.57-12.38-1-4.13,1.4-9,.3-13.54.51-4.21.2-8.77-.24-12.51,1.34-2.94,1.24-40.57,2.14-42.35.3-2.09.42-3.58.85-5.1,1-2.64.26-5.29.32-7.93.51-2.44.19-4.88.34-7.29.69s-4.61,1-6.94,1.36c-2.65.42-5.35.52-8,1.08a22.45,22.45,0,0,0-4.59,2c-4.26,2-8.82,3.24-12.31,7.1-2,2.2-10,2.25-10.48,2.57-4.9,3-9.86,1-14.8.35a13.5,13.5,0,0,0-2.07-.27c-3.71.18-7.42.43-11.12.64-5,.28-15.68,1.29-16.05,1.44a12.7,12.7,0,0,1-3.54,1.35,35.75,35.75,0,0,1-7.94.07c-6.27-.86-12.06,1.94-18.13,2.6-3.45.37-7.33,0-11,2.25-4.84,2.95-16.54-.76-19.48-5.93-1.45-2.56-1.11-6.25-1.57-9.43a9.9,9.9,0,0,1-.08-1.09l-6.07-.85a101.48,101.48,0,0,1-10.38,2,19,19,0,0,0-6.7,2.07c-4.41,2.14-9.37,3-14,4.73-4.32,1.61-8.44,3.79-12.72,5.5-2.62,1-5.38,1.66-7.33,2.25-3.44,2.26-6.33,4.32-9.4,6-.57.31-2.23-.52-2.74-1.3-2.28-3.46-7.84-4.36-10.89-1.69a12.73,12.73,0,0,1-3.27,1.71c-3.34,1.49-6.58,3.49-10.06,4.23-3.68.79-6,3.52-8.94,5.12-3.22,1.74-7.29,2-11,2.35-2.83.25-5.74-.39-8.62-.65-.18,0-8.38-1.27-12.3-7.27-2.41-3.7-4.84-3.6-8.51-1.56a76.44,76.44,0,0,1-15.16,6.27,19.82,19.82,0,0,1-9.44.15c-2.26-.46-4.09-2.92-6.36-3.66s-5.28-1.38-7.18-.4c-4.52,2.35-8.41,6-12.89,8.5-2.59,1.43-5.83,1.54-8.8,2.25-1.05-5.89.11-8.58,4.68-10.59,5.88-2.59,10.73-6.69,15.63-10.83a51.5,51.5,0,0,1,9.09-6c2.18-1.16,12.24,4.92,14.79,6.12,1.56.74,3.81.43,5.59-.05,3.62-1,7.14-2.36,10.68-3.65,3-1.1,6-2.72,9.1-3.31a8.54,8.54,0,0,1,6,1.46c2.1,1.48,3.52,4,5.38,5.88C240.18,154.55,242,157.15,242,157.08Z"/><path class="cls-1" d="M155.13,128.33c-3-5,1.14-8.72,3.05-12.6,3-6.09,7-11.66,10.55-17.44,2.29-3.7,4.5-7.48,7-11.06s5.21-6.16,9.78-5.57c2.12.27,3.5,1.17,3.72,3.51a62.29,62.29,0,0,0,.81,8.36c.61,2.69,1.23,6.28,3.05,7.53,2.25,1.55,5.86,1.82,8.69,1.36,7-1.12,11.75-5.5,14.23-12.56a4.93,4.93,0,0,1,1.8-2.13c2.53-1.83,5.14-3.54,7.79-5.35,5.66,3.87,4.41,11.87,8.88,17.7,2.53.5,5.12-1.43,8.14-2.6,4.57-1.77,13-8.59,13.54-8.82,1.15-.48,3-1.37,3.51-.89,4.32,4.44,9.57,3,14.56,2.76A85.09,85.09,0,0,0,285.86,89c7-1.37,13.93-3.05,20.9-4.5A85.32,85.32,0,0,1,317,82.79c6.32-.53,12.77-.11,18.95-1.33,4.45-.87,8.8.36,13.36-1.09,4.92-1.56,10.5-.83,16.27-1.13,1.82-.33,4.16-.92,6.54-1.13,4.39-.38,8.8-.62,13.2-.76,3.86-.13,7.78.34,11.59-.14,4.08-.51,8.21-.63,12.28-1.17s8.09-3.05,12.47-.59c1.29.73,3.64-.78,5.53-1.08,2.28-.36,4.59-.56,6.89-.74a7.61,7.61,0,0,0,4.12-1c2-1.24,4.91-1,7.44-1.2s5.16-.14,7.73-.28c1.14-.06,2.37-.71,3.4-.44,4.42,1.17,8.44-.52,12.43-1.85,2.39-.8,9.34-.71,12.18-1,8.34-.85,16.78-.73,25.1-1.75,6.93-.84,14-1,20.66-4.09,2.76-1.27,6.32-.44,9.38-1.18,2.18-.53,4.16-2,6.17-3.2,4.8-2.84,5-2.92,10.82-2.2.69,5.11-2.08,12-7.18,13.39-4.3,1.15-7.46,4.68-11.9,5-2.71.19-5.43.39-8.12.76-1.21.17-2.35.92-3.56,1.16-6,1.2-12,2.42-18,3.42-2.18.36-4.47,0-6.69.21-1.69.13-3.35.75-5.05.85-6,.34-12,.5-17.78,2.27-2,.61-22.1,1.1-29.67,2.14-8.23,1.13-16.45,2.35-24.67,3.52-7.22,1-14.42,2.25-21.67,3-4.07.41-8.57-1.11-12.24.21-4.11,1.48-8.07-1.73-12.14,1.12-2.16,1.5-5.76.7-8.7,1-6.18.65-12.35,1.36-18.53,2-.69.08-1.39.12-2.09.16-7.64.47-15.3.67-22.91,1.47-9.14,1-18.53,1.34-27.25,4-8.25,2.52-16.39,2-24.6,2.7-4.65.42-9.25,1.5-13.89,2.09-1.33.17-2.73-.36-4.11-.51-2.59-.28-5.23-1-6.54,2.69-.38,1.07-2.09,1.65-3.24,2.37s-2.77,1-3.59,2.07c-3.43,4.31-7.79,4.27-12.28,3-1.36-.38-2.57-1.9-3.53-3.16a62.22,62.22,0,0,1-3.69-5.82c-1.9-3.14-4-2.32-6-.25s-4.23,4.17-5.59,6.7c-2.12,4-6.23,3.58-9.27,5.43-2.11,1.29-4.82,1.51-7.3,2.09a3.06,3.06,0,0,1-2.33-.18c-1.86-1.6-10.57-16.21-11.8-18.5-.12-.22-2.42.2-2.76.86-3.27,6.38-6.51,12.81-9.4,19.39-1.26,2.87-5.09,6.19-8.08,6A13,13,0,0,0,155.13,128.33Z"/><path class="cls-1" d="M622.2,70.66c-.18.14-.34.47-.52.47-5.73.09-11.55.78-17.16-.08-2.43-.37-5.19-3.49-6.48-6.09-2.93-5.88-4.53-12.15-.59-18.56,2.08-3.37,1.75-8,5.15-10.81,4.35-3.51,8.65-7.09,12.92-10.69.46-.39,11.15-3.58,14.42-6.42,4.25-3.72,14.58-.72,16.64,4.84a19.07,19.07,0,0,1,1.13,8.29c-.67,6.21-2.22,12.25-5.75,17.47-2.46,3.63-5,7.18-7.57,10.75C634.21,60.08,625.16,68.27,622.2,70.66Zm-.66-10.58c3,.34,10.45-9.17,11.22-10,2.63-2.77,2.76-6.27,2.75-9.8,0-2.89-1.67-4-4.13-5.28-3.2-1.61-6.29,0-9-.7-5.52-1.44-9,1.62-12.71,4.58A11.75,11.75,0,0,0,607,42.75c-1.82,3.59,5.57,14.31,7.53,16.62C615.69,60.72,619.13,59.91,621.54,60.08Z"/></g></g></svg>