<svg xmlns="http://www.w3.org/2000/svg" viewBox="0 0 127.42 250"><defs><style>.cls-1{fill:#fff;}</style></defs><title>Icon_White</title><g id="Layer_2" data-name="Layer 2"><g id="Layer_1-2" data-name="Layer 1"><path class="cls-1" d="M94,243c-1.61,2.25-3,4.77-5.08,6.49-1,.79-4.09.61-4.58-.21a116.69,116.69,0,0,1-6.08-12.46c-2.47-5.61-4.77-11.3-7.16-16.95s-4.87-11.47-7.31-17.2c-2.14-5-4.47-5.86-9.22-3.41-.68.35-13,2.9-18.27,4.63a12.47,12.47,0,0,1-2.91.88c-3.68.26-5.62,2.36-6.1,6.3q-1.73,14-3.7,27.86c-.58,4-3.7,6.83-6.83,6.54-1.94-.18-3.18-.81-3-3.41.61-7.42,1-14.87,1.43-22.32.05-.83-.06-1.68-.12-3-1.35.17-2.69,0-3.69.54C8.13,219,5.14,217.88,4,215a9.38,9.38,0,0,1,1.17-7.64c2.42-3.13,5.81-5.51,9-7.84a8.92,8.92,0,0,0,4.06-6.75c.77-6.52,2.31-12.95,3.1-19.47a89.51,89.51,0,0,0,.33-12.8c-.12-5.74-.57-11.47-.74-17.2-.08-2.42-1-2.81-3.1-2.37a78.88,78.88,0,0,1-12.89,2c-1.77.06-3.6-1.84-5-2.61a33.5,33.5,0,0,0,.58-4.26c0-3,1.49-4.34,4-5.07q6-1.76,11.93-3.79c2.74-1,4.35-2.77,4.66-6.12.63-6.76,1.9-13.45,2.45-20.21.4-4.81,0-9.69.08-14.53.12-5.36,2.78-9.5,6.31-13,2-2,6.57-1.82,8.63.32a30.88,30.88,0,0,1,7.72,13.3c.8,2.85,2.67,5.35,3.83,8.11q2,4.84,3.64,9.88a6.47,6.47,0,0,0,8,4.51c9.36-2.65,33.94-11.33,36.69-13.33.66-.47.8-2,.92-3,1.68-15.33,1.89-30.85,5.52-45.94,2.29-9.5,4.35-19,6.46-28.59.34-1.52,3.77-12.66,4.08-13,1.54-1.82,2.76-4.45,4.68-5.25s4.44.3,7,.6c2.13,8.55-10.18,35-10.15,36,.2,6.75-4.09,38.17-3.84,42.41s-.38,8.4-.3,12.6a8.82,8.82,0,0,0,.2,1.74c1.44,6.55.43,13.42-1.85,19.7-.94,2.57-1.85,5.17-2.7,7.78-1,3.16-.91,6.73-1.46,10.08-.31,1.9,1.4,18.56,2.82,23.52.53,1.85,4,13.26-.65,16.08-6.67,4.07-7.65,10.61-8.34,17.48-.41,4-.37,8-.71,12C100.1,201.42,96.16,239.93,94,243Zm3.64-130.6c-8.24,4.41-28.17,12.11-29.64,14.4a11.87,11.87,0,0,0-2,8.61c.84,5.42,1.16,10.94,2,16.36A65.74,65.74,0,0,0,70.86,164c1.29,3.54,3.74,7.26,7.77,6.72,5.14-.68,10.41-2,14.47-5.93a3.12,3.12,0,0,0,.48-1.73c.57-5.79,1.2-11.57,1.65-17.37.5-6.39.8-12.81,1.25-19.21C96.78,122.07,97.19,117.65,97.61,112.4ZM42.87,131.58c-2.13.67-8.83,3.81-8.76,6a133,133,0,0,1-.44,14c-.3,4.33-1.1,8.62-1.34,13-.21,3.63.34,7.31.05,10.92a15,15,0,0,0,3,10.24c1.3,1.84,3.09,2.49,5.25,1.29s9.09-5.13,9.07-7.43c-.08-9.15-.32-18.32.11-27.45A27.73,27.73,0,0,0,42.87,131.58ZM90.59,183.1a26.81,26.81,0,0,0-5.45,1.16c-1.89.81-4.28,1.81-5.14,3.48-1.71,3.3-.66,6.91,1.48,9.78,1.81,2.43,5.38,2.26,6.4-.33C89.6,192.82,92.58,188.63,90.59,183.1Z"/></g></g></svg>